<svg version="1.1" id="Layer_1" xmlns="http://www.w3.org/2000/svg" x="0" y="0" viewBox="0 0 1080 1080" style="enable-background:new 0 0 1080 1080" xml:space="preserve"><style>.st7{fill:#283571}</style><path d="M521.56 853.58c-201.14.17-364.33-162.73-364.5-363.87-.17-201.14 162.73-364.33 363.87-364.5s364.33 162.73 364.5 363.87a364.168 364.168 0 0 1-106.5 257.68 361.746 361.746 0 0 1-257.37 106.82z" style="fill:#ef8140"/><path d="M521.56 890c-221.23-.02-400.54-179.38-400.51-400.61S300.45 88.86 521.67 88.88c221.21.02 400.52 179.4 400.51 400.61-.02 106.21-42.21 208.08-117.32 283.18A398.076 398.076 0 0 1 521.56 890zm0-728.36c-181.02 0-327.77 146.75-327.77 327.77s146.75 327.77 327.77 327.77 327.77-146.75 327.77-327.77c0-86.93-34.53-170.3-96.01-231.76a325.567 325.567 0 0 0-231.76-96.01z" style="fill:#ed6926"/><path d="M376.18 264.25h288.8c1.62.21 2.44 1.03 2.44 2.44v27.48c0 1.63-.82 2.44-2.44 2.44H556.3v2.44c15.46 8.35 27.48 25.44 36.02 51.29l1.22 8.85h71.44c1.62.21 2.44 1.02 2.44 2.44v27.48c0 1.63-.82 2.44-2.44 2.44H596.3c0 30.73-18.83 60.64-56.48 89.75-33.38 19.13-57.09 28.7-71.13 28.7 0 .81-.81 1.22-2.44 1.22L621.34 712.1v2.44h-58.92c-.61 0-60.55-77.74-179.82-233.24v-1.23h18.62c65.94 0 105.52-23.7 118.76-71.13.81-5.69 1.22-10.27 1.22-13.74v-3.66H376.18c-1.63 0-2.44-.81-2.44-2.44v-27.48c.2-1.63 1.02-2.44 2.44-2.44h143.79c-4.88-18.52-15.27-33.58-31.14-45.19-21.98-11.59-42.03-17.4-60.14-17.4h-52.51c-1.63 0-2.44-.81-2.44-2.44v-27.48c.2-1.6 1.02-2.42 2.44-2.42z" style="fill:#f6efef"/><path d="M795.78 309.99c-4.51 0-8.16 3.65-8.16 8.16 0 27.67-21.88 49.8-48.94 49.8-4.51 0-8.16 3.65-8.16 8.16v57.96c0 90.98 35.83 150.08 71.74 185.77s72.38 48.59 72.38 48.59c1.75.62 3.67.62 5.42 0 0 0 36.47-12.9 72.38-48.59 35.91-35.69 71.74-94.79 71.74-185.78V376.1c0-4.51-3.65-8.16-8.16-8.16-27.06 0-48.94-22.13-48.94-49.8 0-4.51-3.65-8.16-8.16-8.16H795.78z" style="fill:#d4d3d2"/><path d="M809.52 340.21a6.78 6.78 0 0 0-6.78 6.78c0 23.01-18.2 41.41-40.7 41.41a6.78 6.78 0 0 0-6.78 6.78v48.2c0 75.66 29.8 124.81 59.66 154.48 29.86 29.68 60.19 40.41 60.19 40.41 1.46.51 3.05.51 4.5 0 0 0 30.32-10.73 60.19-40.41s59.66-78.83 59.66-154.49v-48.2a6.78 6.78 0 0 0-6.78-6.78c-22.5 0-40.7-18.4-40.7-41.41a6.78 6.78 0 0 0-6.78-6.78H809.52z" style="fill:#283371"/><path d="m952.97 443.85-75.93 84.88c-5.37 6.02-14.68 6.33-20.45.69l-35.37-34.21c-5.59-5.46-5.68-14.42-.22-20.01s14.42-5.68 20.01-.22l24.82 23.88L931.9 425c6.5-6.71 13.92-6.13 19.86-1.03 5.93 5.11 6.42 14.06 1.21 19.88z" style="fill:#fff"/><path d="m979.15 721.19-145.97 75.9-1.77-5.59c-10.43-40.57-51.78-65.01-92.35-54.58a75.459 75.459 0 0 0-15.02 5.61l-193.45 96.72-265.22-75.78H94.88v189.45h37.89l435.73 113.67L1080 782.42c0-38.11-30.9-69.01-69.01-69.01-11.08 0-22 2.67-31.84 7.78z" style="fill:#f4bb99"/><path class="st7" d="m90.09 1026.36 144.6-45.39-79.43-253.05-144.6 45.39 79.43 253.05zM161.52 60.21l23.35-46.8 23.35 46.8a66.658 66.658 0 0 0 29.9 29.9l46.8 23.35-46.8 23.35a66.658 66.658 0 0 0-29.9 29.9l-23.35 46.8-23.35-46.8a66.658 66.658 0 0 0-29.9-29.9l-46.8-23.35 46.8-23.35a66.56 66.56 0 0 0 29.9-29.9z"/><path d="m46.37 247.48 14.16-28.33 14.16 28.33a40.273 40.273 0 0 0 18.04 18.04l28.33 14.16-28.33 14.16a40.273 40.273 0 0 0-18.04 18.04l-14.16 28.33-14.16-28.33a40.273 40.273 0 0 0-18.04-18.04L0 279.68l28.33-14.16a40.176 40.176 0 0 0 18.04-18.04z" style="fill:#253772"/></svg>
